<svg width="1906" height="501" viewBox="0 0 1906 501" fill="none" xmlns="http://www.w3.org/2000/svg">
<path fill-rule="evenodd" clip-rule="evenodd" d="M354.4 495H298.163L339.856 337.771L225.639 454.442L173.5 344L211.5 305L245.5 366.5L431.323 187L354.4 495Z" fill="white"/>
<path d="M142.5 278L177.5 243L93.5 90L36.5 328H88.5L113.698 216.558L142.5 278Z" fill="white"/>
<path fill-rule="evenodd" clip-rule="evenodd" d="M318.5 281L245.5 352L283.061 215.771L168.5 333L0 434.5L374.492 65L318.5 281Z" fill="white"/>
<path d="M496.646 250L535.882 92.7083L585.361 181.076L685.188 84.375L643.868 250H613.66L625.986 201.042C627.259 196.296 628.648 191.088 630.153 185.417C631.773 179.63 633.741 172.975 636.056 165.451C631.889 170.775 627.954 175.347 624.25 179.167C620.546 182.87 617.016 186.4 613.66 189.757L574.597 228.299L559.319 198.09C557.352 194.039 554.921 189.178 552.028 183.507C549.134 177.836 546.704 171.817 544.736 165.451C543.694 174.942 542.363 183.218 540.743 190.278C539.123 197.222 537.56 203.588 536.056 209.375L525.813 250H496.646ZM677.31 250L716.372 93.75H799.706L792.935 120.833H739.81L733.907 144.792H774.879L768.456 170.833H727.31L714.463 221.875H767.588L760.643 250H677.31ZM908.386 255.208L838.942 156.944L815.852 250H786.685L826.963 88.5417L896.407 186.632L919.497 93.75H948.664L908.386 255.208ZM1028.35 253.125C1014.58 253.125 1002.14 249.942 991.025 243.576C980.03 237.211 971.291 228.588 964.81 217.708C958.444 206.829 955.261 194.676 955.261 181.25C955.261 169.329 957.75 157.986 962.727 147.222C967.703 136.343 974.474 126.678 983.039 118.229C991.604 109.664 1001.38 102.951 1012.38 98.0903C1023.37 93.1134 1034.95 90.625 1047.1 90.625C1057.4 90.625 1066.95 92.419 1075.75 96.0069C1084.54 99.5949 1092.18 104.572 1098.66 110.937L1082.52 144.444C1078.93 137.269 1073.72 131.539 1066.89 127.257C1060.18 122.975 1052.48 120.833 1043.8 120.833C1036.51 120.833 1029.51 122.396 1022.8 125.521C1016.08 128.646 1010.12 132.928 1004.91 138.368C999.821 143.692 995.771 149.826 992.761 156.771C989.752 163.6 988.247 170.775 988.247 178.299C988.247 186.632 990.157 194.213 993.977 201.042C997.796 207.755 1003 213.079 1009.6 217.014C1016.2 220.949 1023.61 222.917 1031.82 222.917C1041.66 222.917 1050.81 220.139 1059.25 214.583C1067.82 208.912 1074.59 201.794 1079.57 193.229V236.458C1072.16 241.667 1064.06 245.775 1055.26 248.785C1046.58 251.678 1037.61 253.125 1028.35 253.125ZM1179.47 253.125C1165.7 253.125 1153.26 249.942 1142.15 243.576C1131.15 237.211 1122.41 228.588 1115.93 217.708C1109.57 206.829 1106.38 194.676 1106.38 181.25C1106.38 169.329 1108.87 157.986 1113.85 147.222C1118.83 136.343 1125.6 126.678 1134.16 118.229C1142.73 109.664 1152.51 102.951 1163.5 98.0903C1174.5 93.1134 1186.07 90.625 1198.22 90.625C1212.11 90.625 1224.56 93.8079 1235.55 100.174C1246.55 106.539 1255.23 115.162 1261.59 126.042C1268.07 136.921 1271.31 149.132 1271.31 162.674C1271.31 174.479 1268.83 185.822 1263.85 196.701C1258.99 207.581 1252.22 217.245 1243.54 225.694C1234.97 234.144 1225.19 240.856 1214.2 245.833C1203.2 250.694 1191.63 253.125 1179.47 253.125ZM1182.95 222.917C1190.24 222.917 1197.18 221.354 1203.78 218.229C1210.49 215.104 1216.45 210.822 1221.66 205.382C1226.87 199.942 1230.92 193.75 1233.81 186.806C1236.82 179.861 1238.33 172.627 1238.33 165.104C1238.33 156.655 1236.42 149.132 1232.6 142.535C1228.9 135.822 1223.75 130.556 1217.15 126.736C1210.67 122.801 1203.26 120.833 1194.93 120.833C1187.63 120.833 1180.63 122.396 1173.92 125.521C1167.21 128.646 1161.25 132.928 1156.04 138.368C1150.94 143.692 1146.89 149.826 1143.88 156.771C1140.88 163.6 1139.37 170.775 1139.37 178.299C1139.37 186.632 1141.28 194.213 1145.1 201.042C1148.92 207.755 1154.13 213.079 1160.72 217.014C1167.32 220.949 1174.73 222.917 1182.95 222.917ZM1399.84 255.208L1330.4 156.944L1307.31 250H1278.14L1318.42 88.5417L1387.86 186.632L1410.95 93.75H1440.12L1399.84 255.208ZM1435.43 250L1474.49 93.75H1506.79L1467.72 250H1435.43Z" fill="white"/>
<path d="M435.646 495L474.882 337.708L524.361 426.076L624.188 329.375L582.868 495H552.66L564.986 446.042C566.259 441.296 567.648 436.088 569.153 430.417C570.773 424.63 572.741 417.975 575.056 410.451C570.889 415.775 566.954 420.347 563.25 424.167C559.546 427.87 556.016 431.4 552.66 434.757L513.597 473.299L498.319 443.09C496.352 439.039 493.921 434.178 491.028 428.507C488.134 422.836 485.704 416.817 483.736 410.451C482.694 419.942 481.363 428.218 479.743 435.278C478.123 442.222 476.56 448.588 475.056 454.375L464.813 495H435.646ZM601.727 495L710.581 333.194H710.928L739.921 495H710.234L705.546 467.222H652.421L633.845 495H601.727ZM669.088 442.222H701.206L698.428 426.25C697.618 421.968 696.923 417.859 696.345 413.924C695.766 409.873 695.419 405.185 695.303 399.861C692.757 405.069 690.21 409.699 687.664 413.75C685.234 417.801 682.571 421.968 679.678 426.25L669.088 442.222ZM759.512 495L798.227 338.75H842.672C851.236 338.75 858.933 340.66 865.762 344.479C872.591 348.183 877.973 353.275 881.908 359.757C885.959 366.238 887.984 373.53 887.984 381.632C887.984 387.998 886.711 394.19 884.165 400.208C881.618 406.111 878.088 411.493 873.574 416.354C869.176 421.1 864.084 425.093 858.297 428.333L881.908 495H849.79L829.824 435.625H804.477L789.72 495H759.512ZM810.901 409.583H831.04C835.901 409.583 840.357 408.484 844.408 406.285C848.459 404.086 851.642 401.134 853.956 397.431C856.387 393.727 857.602 389.676 857.602 385.278C857.602 379.722 855.635 375.266 851.699 371.91C847.764 368.553 842.556 366.875 836.074 366.875H821.491L810.901 409.583ZM986.622 495L952.074 394.479L1006.59 338.75H1043.05L985.754 396.562L1020.48 495H986.622ZM897.56 495L936.622 338.75H967.872L928.81 495H897.56ZM1036.48 495L1075.54 338.75H1158.87L1152.1 365.833H1098.98L1093.07 389.792H1134.05L1127.62 415.833H1086.48L1073.63 466.875H1126.75L1119.81 495H1036.48ZM1168.59 366.875L1175.54 338.75H1284.22L1277.27 366.875H1239.08L1206.96 495H1174.67L1206.79 366.875H1168.59ZM1270.18 495L1309.25 338.75H1341.54L1302.48 495H1270.18ZM1458.47 500.208L1389.03 401.944L1365.94 495H1336.77L1377.05 333.542L1446.49 431.632L1469.58 338.75H1498.75L1458.47 500.208ZM1578.44 498.125C1564.66 498.125 1552.22 494.942 1541.11 488.576C1530.11 482.211 1521.38 473.588 1514.89 462.708C1508.53 451.829 1505.35 439.676 1505.35 426.25C1505.35 414.329 1507.83 402.986 1512.81 392.222C1517.79 381.343 1524.56 371.678 1533.12 363.229C1541.69 354.664 1551.47 347.951 1562.46 343.09C1573.46 338.113 1585.03 335.625 1597.19 335.625C1607.49 335.625 1617.04 337.419 1625.83 341.007C1634.63 344.595 1642.27 349.572 1648.75 355.937L1632.6 389.444C1629.01 382.269 1623.81 376.539 1616.98 372.257C1610.26 367.975 1602.57 365.833 1593.89 365.833C1586.6 365.833 1579.59 367.396 1572.88 370.521C1566.17 373.646 1560.21 377.928 1555 383.368C1549.91 388.692 1545.85 394.826 1542.85 401.771C1539.84 408.6 1538.33 415.775 1538.33 423.299C1538.33 431.632 1540.24 439.213 1544.06 446.042C1547.88 452.755 1553.09 458.079 1559.69 462.014C1566.28 465.949 1573.69 467.917 1581.91 467.917C1585.96 467.917 1589.84 467.454 1593.54 466.528C1597.36 465.486 1600.89 464.097 1604.13 462.361L1611.07 433.542H1579.3L1585.73 407.5H1645.97L1627.74 482.674C1620.45 487.65 1612.64 491.47 1604.3 494.132C1595.97 496.794 1587.35 498.125 1578.44 498.125Z" fill="white"/>
</svg>
