<svg width="1474" height="501" viewBox="0 0 1474 501" fill="none" xmlns="http://www.w3.org/2000/svg">
<path d="M64.6458 250L103.882 92.7083L153.361 181.076L253.188 84.375L211.868 250H181.66L193.986 201.042C195.259 196.296 196.648 191.088 198.153 185.417C199.773 179.63 201.741 172.975 204.056 165.451C199.889 170.775 195.954 175.347 192.25 179.167C188.546 182.87 185.016 186.4 181.66 189.757L142.597 228.299L127.319 198.09C125.352 194.039 122.921 189.178 120.028 183.507C117.134 177.836 114.704 171.817 112.736 165.451C111.694 174.942 110.363 183.218 108.743 190.278C107.123 197.222 105.56 203.588 104.056 209.375L93.8125 250H64.6458ZM245.31 250L284.372 93.75H367.706L360.935 120.833H307.81L301.907 144.792H342.879L336.456 170.833H295.31L282.463 221.875H335.588L328.643 250H245.31ZM476.386 255.208L406.942 156.944L383.852 250H354.685L394.963 88.5417L464.407 186.632L487.497 93.75H516.664L476.386 255.208ZM596.352 253.125C582.578 253.125 570.136 249.942 559.025 243.576C548.03 237.211 539.291 228.588 532.81 217.708C526.444 206.829 523.261 194.676 523.261 181.25C523.261 169.329 525.75 157.986 530.727 147.222C535.703 136.343 542.474 126.678 551.039 118.229C559.604 109.664 569.384 102.951 580.379 98.0903C591.375 93.1134 602.949 90.625 615.102 90.625C625.402 90.625 634.951 92.419 643.747 96.0069C652.544 99.5949 660.183 104.572 666.664 110.937L650.518 144.444C646.93 137.269 641.722 131.539 634.893 127.257C628.18 122.975 620.484 120.833 611.803 120.833C604.511 120.833 597.509 122.396 590.796 125.521C584.083 128.646 578.122 132.928 572.914 138.368C567.821 143.692 563.771 149.826 560.761 156.771C557.752 163.6 556.247 170.775 556.247 178.299C556.247 186.632 558.157 194.213 561.977 201.042C565.796 207.755 571.004 213.079 577.602 217.014C584.199 220.949 591.606 222.917 599.824 222.917C609.662 222.917 618.805 220.139 627.254 214.583C635.819 208.912 642.59 201.794 647.567 193.229V236.458C640.159 241.667 632.058 245.775 623.261 248.785C614.581 251.678 605.611 253.125 596.352 253.125ZM747.475 253.125C733.701 253.125 721.259 249.942 710.148 243.576C699.153 237.211 690.414 228.588 683.933 217.708C677.567 206.829 674.384 194.676 674.384 181.25C674.384 169.329 676.873 157.986 681.85 147.222C686.826 136.343 693.597 126.678 702.162 118.229C710.727 109.664 720.507 102.951 731.502 98.0903C742.498 93.1134 754.072 90.625 766.225 90.625C780.114 90.625 792.556 93.8079 803.551 100.174C814.546 106.539 823.227 115.162 829.593 126.042C836.074 136.921 839.315 149.132 839.315 162.674C839.315 174.479 836.826 185.822 831.85 196.701C826.988 207.581 820.218 217.245 811.537 225.694C802.972 234.144 793.192 240.856 782.197 245.833C771.201 250.694 759.627 253.125 747.475 253.125ZM750.947 222.917C758.238 222.917 765.183 221.354 771.78 218.229C778.493 215.104 784.454 210.822 789.662 205.382C794.87 199.942 798.921 193.75 801.815 186.806C804.824 179.861 806.329 172.627 806.329 165.104C806.329 156.655 804.419 149.132 800.6 142.535C796.896 135.822 791.745 130.556 785.148 126.736C778.667 122.801 771.259 120.833 762.926 120.833C755.634 120.833 748.632 122.396 741.919 125.521C735.206 128.646 729.245 132.928 724.037 138.368C718.945 143.692 714.894 149.826 711.884 156.771C708.875 163.6 707.37 170.775 707.37 178.299C707.37 186.632 709.28 194.213 713.1 201.042C716.919 207.755 722.127 213.079 728.725 217.014C735.322 220.949 742.729 222.917 750.947 222.917ZM967.841 255.208L898.397 156.944L875.307 250H846.14L886.418 88.5417L955.862 186.632L978.952 93.75H1008.12L967.841 255.208ZM1003.43 250L1042.49 93.75H1074.79L1035.72 250H1003.43Z" fill="white"/>
<path d="M3.64583 495L42.8819 337.708L92.3611 426.076L192.188 329.375L150.868 495H120.66L132.986 446.042C134.259 441.296 135.648 436.088 137.153 430.417C138.773 424.63 140.741 417.975 143.056 410.451C138.889 415.775 134.954 420.347 131.25 424.167C127.546 427.87 124.016 431.4 120.66 434.757L81.5972 473.299L66.3194 443.09C64.3519 439.039 61.9213 434.178 59.0278 428.507C56.1343 422.836 53.7037 416.817 51.7361 410.451C50.6944 419.942 49.3634 428.218 47.7431 435.278C46.1227 442.222 44.5602 448.588 43.0556 454.375L32.8125 495H3.64583ZM169.727 495L278.581 333.194H278.928L307.921 495H278.234L273.546 467.222H220.421L201.845 495H169.727ZM237.088 442.222H269.206L266.428 426.25C265.618 421.968 264.923 417.859 264.345 413.924C263.766 409.873 263.419 405.185 263.303 399.861C260.757 405.069 258.21 409.699 255.664 413.75C253.234 417.801 250.571 421.968 247.678 426.25L237.088 442.222ZM327.512 495L366.227 338.75H410.672C419.236 338.75 426.933 340.66 433.762 344.479C440.591 348.183 445.973 353.275 449.908 359.757C453.959 366.238 455.984 373.53 455.984 381.632C455.984 387.998 454.711 394.19 452.165 400.208C449.618 406.111 446.088 411.493 441.574 416.354C437.176 421.1 432.084 425.093 426.297 428.333L449.908 495H417.79L397.824 435.625H372.477L357.72 495H327.512ZM378.901 409.583H399.04C403.901 409.583 408.357 408.484 412.408 406.285C416.459 404.086 419.642 401.134 421.956 397.431C424.387 393.727 425.602 389.676 425.602 385.278C425.602 379.722 423.635 375.266 419.699 371.91C415.764 368.553 410.556 366.875 404.074 366.875H389.491L378.901 409.583ZM554.622 495L520.074 394.479L574.588 338.75H611.046L553.754 396.562L588.477 495H554.622ZM465.56 495L504.622 338.75H535.872L496.81 495H465.56ZM604.476 495L643.538 338.75H726.872L720.101 365.833H666.976L661.073 389.792H702.045L695.622 415.833H654.476L641.629 466.875H694.754L687.809 495H604.476ZM736.594 366.875L743.538 338.75H852.219L845.275 366.875H807.08L774.962 495H742.67L774.788 366.875H736.594ZM838.184 495L877.246 338.75H909.538L870.475 495H838.184ZM1026.47 500.208L957.026 401.944L933.936 495H904.769L945.047 333.542L1014.49 431.632L1037.58 338.75H1066.75L1026.47 500.208ZM1146.44 498.125C1132.66 498.125 1120.22 494.942 1109.11 488.576C1098.11 482.211 1089.38 473.588 1082.89 462.708C1076.53 451.829 1073.35 439.676 1073.35 426.25C1073.35 414.329 1075.83 402.986 1080.81 392.222C1085.79 381.343 1092.56 371.678 1101.12 363.229C1109.69 354.664 1119.47 347.951 1130.46 343.09C1141.46 338.113 1153.03 335.625 1165.19 335.625C1175.49 335.625 1185.04 337.419 1193.83 341.007C1202.63 344.595 1210.27 349.572 1216.75 355.937L1200.6 389.444C1197.01 382.269 1191.81 376.539 1184.98 372.257C1178.26 367.975 1170.57 365.833 1161.89 365.833C1154.6 365.833 1147.59 367.396 1140.88 370.521C1134.17 373.646 1128.21 377.928 1123 383.368C1117.91 388.692 1113.85 394.826 1110.85 401.771C1107.84 408.6 1106.33 415.775 1106.33 423.299C1106.33 431.632 1108.24 439.213 1112.06 446.042C1115.88 452.755 1121.09 458.079 1127.69 462.014C1134.28 465.949 1141.69 467.917 1149.91 467.917C1153.96 467.917 1157.84 467.454 1161.54 466.528C1165.36 465.486 1168.89 464.097 1172.13 462.361L1179.07 433.542H1147.3L1153.73 407.5H1213.97L1195.74 482.674C1188.45 487.65 1180.64 491.47 1172.3 494.132C1163.97 496.794 1155.35 498.125 1146.44 498.125Z" fill="white"/>
</svg>
